<?xml version="1.0" standalone="no"?>
<!DOCTYPE svg PUBLIC "-//W3C//DTD SVG 20010904//EN"
 "http://www.w3.org/TR/2001/REC-SVG-20010904/DTD/svg10.dtd">
<svg version="1.0" xmlns="http://www.w3.org/2000/svg"
 width="700.000000pt" height="490.000000pt" viewBox="0 0 700.000000 490.000000"
 preserveAspectRatio="xMidYMid meet">

<g transform="translate(0.000000,490.000000) scale(0.100000,-0.100000)"
fill="#000000" stroke="none">
<path d="M3355 4859 c-4 -6 -5 -12 -2 -15 2 -3 7 2 10 11 7 17 1 20 -8 4z"/>
<path d="M3358 4815 c-10 -13 -18 -38 -20 -57 -1 -18 -4 -37 -7 -43 -3 -5 -6
-28 -7 -51 -1 -32 2 -41 12 -37 8 3 14 16 14 28 0 13 3 26 8 28 4 3 5 -15 3
-39 -2 -26 1 -44 8 -44 14 0 33 72 21 84 -5 5 -7 28 -3 51 3 23 0 51 -6 63 -8
15 -8 21 1 24 7 3 8 7 3 10 -6 3 -18 -4 -27 -17z"/>
<path d="M5873 4618 c-52 -27 -65 -39 -84 -80 -18 -39 -21 -53 -12 -67 9 -14
7 -21 -8 -35 -11 -9 -28 -16 -40 -16 -11 0 -28 -7 -37 -16 -11 -11 -27 -15
-54 -11 -33 4 -38 2 -38 -15 0 -10 -4 -17 -9 -14 -5 3 -12 -1 -15 -10 -5 -12
-2 -15 10 -10 15 6 15 4 3 -10 -11 -13 -11 -18 -1 -21 6 -3 12 -15 12 -27 0
-12 10 -28 21 -36 12 -8 40 -29 63 -46 22 -17 64 -38 91 -48 69 -23 74 -27 68
-58 -4 -20 -12 -28 -32 -31 -20 -3 -17 -4 12 -6 27 -1 37 3 37 14 0 21 22 19
43 -5 12 -14 29 -20 57 -20 22 0 40 -4 40 -10 0 -5 7 -7 15 -4 8 4 21 2 28 -4
6 -5 30 -13 51 -16 21 -4 45 -14 53 -22 8 -8 23 -14 34 -14 10 0 19 -4 19 -10
0 -5 -13 -10 -30 -10 -16 0 -30 4 -30 10 0 5 -8 7 -17 4 -39 -13 -63 -28 -63
-41 0 -13 -22 -17 -77 -14 -17 1 -41 -3 -52 -9 -18 -9 -23 -8 -30 11 l-8 23
-7 -25 c-6 -23 -7 -23 -21 -5 -14 19 -52 15 -40 -4 3 -5 1 -10 -4 -10 -6 0
-11 5 -11 11 0 6 -7 3 -16 -6 -15 -15 -27 -14 -71 2 -7 3 -13 0 -13 -7 0 -7
-8 -9 -20 -5 -11 3 -20 2 -20 -4 0 -5 14 -12 30 -16 33 -7 37 -16 15 -35 -9
-8 -26 -10 -42 -6 -51 13 -121 17 -127 8 -9 -15 14 -28 97 -56 l78 -26 46 20
c62 27 108 26 145 -5 16 -14 37 -25 47 -25 10 0 21 -3 25 -7 9 -9 46 -11 46
-3 0 4 6 7 13 7 6 0 24 4 39 8 21 5 32 2 52 -19 15 -14 26 -34 26 -45 0 -47
10 -52 48 -26 39 27 90 33 110 13 7 -7 12 -29 12 -50 0 -53 -30 -169 -46 -175
-18 -7 -69 22 -93 53 -19 24 -22 25 -36 10 -19 -18 -22 -19 -90 -17 -27 1 -56
8 -63 15 -12 11 -18 10 -37 -10 -23 -23 -31 -24 -143 -24 -78 0 -122 4 -130
12 -9 9 -12 9 -12 -1 0 -10 -32 -12 -147 -11 -155 3 -283 -7 -283 -21 0 -15
-94 -50 -126 -47 -26 2 -39 -5 -73 -42 -22 -24 -41 -48 -41 -52 0 -16 -41 -30
-55 -18 -8 7 -19 9 -25 5 -18 -11 -11 -25 14 -25 14 0 27 -4 30 -9 7 -11 85
-31 161 -41 53 -7 66 -5 115 18 30 14 62 32 71 39 13 11 77 13 332 11 282 -3
317 -5 334 -20 14 -13 22 -15 30 -7 8 8 18 7 34 -2 31 -16 50 -35 42 -43 -12
-11 50 -26 112 -26 41 0 65 -4 68 -12 4 -10 6 -10 6 0 1 18 80 16 87 -3 4 -8
12 -15 20 -15 19 0 18 -18 -3 -38 -12 -13 -36 -17 -94 -18 -54 -1 -86 -6 -103
-18 -14 -9 -36 -16 -50 -16 -14 0 -28 -5 -31 -10 -4 -6 -11 -8 -16 -5 -5 4 -9
2 -9 -4 0 -6 -12 -14 -27 -17 -16 -4 -31 -12 -35 -18 -6 -8 -11 -6 -18 4 -8
13 -10 12 -10 -2 0 -10 -6 -18 -12 -19 -7 -1 -26 -2 -41 -3 -16 0 -34 -9 -41
-18 -9 -12 -35 -18 -102 -23 -49 -4 -92 -9 -96 -11 -4 -3 -24 2 -45 11 -21 9
-39 12 -41 7 -3 -10 -39 -5 -57 8 -5 4 -44 15 -85 25 -41 9 -87 24 -102 31
-14 8 -39 14 -55 14 -16 0 -32 3 -36 6 -3 4 -31 7 -62 8 -43 1 -55 -2 -55 -14
0 -32 161 -115 293 -152 20 -6 37 -17 37 -24 0 -8 3 -14 8 -15 4 0 27 -3 52
-6 25 -3 61 -5 80 -5 19 1 39 -3 46 -9 6 -5 38 -10 71 -12 32 -2 63 -6 69 -9
5 -3 33 -2 63 3 30 4 58 6 63 3 4 -3 13 -2 19 2 6 3 32 8 58 10 91 6 132 16
199 50 26 13 52 24 58 24 7 0 14 7 18 15 3 8 12 15 21 15 8 0 15 4 15 10 0 5
21 22 48 37 26 15 53 35 60 44 7 10 30 35 52 57 22 21 40 42 40 45 0 3 12 23
26 44 14 21 32 53 41 71 9 18 29 47 46 65 46 49 111 129 125 155 27 49 39 65
85 115 36 40 47 47 48 32 0 -18 1 -17 9 3 5 12 11 37 13 55 2 18 7 38 11 45
13 22 -26 57 -66 60 -21 1 -38 -2 -38 -8 0 -5 -7 -10 -15 -10 -9 0 -15 9 -15
21 0 17 -3 19 -14 10 -22 -19 -88 -10 -116 16 -14 13 -28 23 -32 23 -4 0 -34
20 -65 44 -93 69 -138 95 -245 136 -81 32 -104 37 -121 28 -16 -8 -23 -7 -34
8 -7 10 -13 21 -13 26 0 4 -8 8 -18 8 -10 0 -28 10 -40 23 l-21 23 47 23 c26
13 55 28 65 33 10 5 22 6 26 4 12 -8 149 20 166 34 15 13 19 106 4 116 -5 3
-9 44 -9 92 -1 63 -6 96 -18 120 l-18 33 -14 -26 c-27 -51 -72 -53 -114 -6
-11 11 -25 21 -33 21 -17 0 -43 24 -43 39 0 6 -8 11 -17 12 -28 1 -55 6 -103
18 -67 16 -80 14 -147 -21z m222 -556 c-3 -3 -11 0 -18 7 -9 10 -8 11 6 5 10
-3 15 -9 12 -12z m65 -12 c0 -5 -4 -10 -9 -10 -6 0 -13 5 -16 10 -3 6 1 10 9
10 9 0 16 -4 16 -10z m94 -31 c-6 -11 -24 -2 -24 11 0 5 7 7 15 4 8 -4 12 -10
9 -15z m46 -14 c11 -13 10 -14 -4 -9 -9 3 -16 10 -16 15 0 13 6 11 20 -6z
m140 -469 c0 -18 -5 -47 -11 -65 -10 -30 -12 -31 -26 -14 -13 16 -13 15 -8
-14 9 -44 -15 -40 -52 8 -19 24 3 82 29 76 13 -4 18 -1 16 11 -2 11 3 16 15
14 9 -2 17 2 17 8 0 5 5 10 10 10 6 0 10 -15 10 -34z m15 -376 c-3 -5 -10 -10
-16 -10 -5 0 -9 5 -9 10 0 6 7 10 16 10 8 0 12 -4 9 -10z"/>
<path d="M5358 4626 c-68 -25 -93 -53 -149 -168 -21 -44 112 -33 217 18 39 19
78 34 86 34 28 0 51 25 44 48 -19 58 -126 95 -198 68z"/>
<path d="M5575 4291 c-3 -5 -1 -12 5 -16 5 -3 10 1 10 9 0 18 -6 21 -15 7z"/>
<path d="M4615 4249 c-32 -32 -37 -41 -26 -51 10 -10 15 -10 18 -1 2 7 18 28
34 49 47 59 34 61 -26 3z"/>
<path d="M4560 4194 c0 -5 4 -15 9 -23 5 -8 4 -22 -3 -35 -32 -57 -52 -86 -58
-86 -3 0 -4 -9 -1 -20 3 -11 1 -20 -5 -20 -25 0 -62 -133 -70 -250 -4 -65 12
-166 34 -208 l12 -23 6 26 c5 19 11 25 24 21 24 -8 68 32 53 47 -6 6 -11 34
-11 63 0 28 -7 71 -15 94 -15 41 -14 47 16 149 38 131 49 240 25 260 -9 7 -16
10 -16 5z"/>
<path d="M6810 4035 c0 -4 7 -20 16 -36 11 -22 12 -34 4 -44 -13 -15 11 -28
35 -19 10 4 15 0 16 -12 0 -11 3 -14 6 -6 8 21 -51 122 -71 122 -3 0 -6 -2 -6
-5z"/>
<path d="M5970 4010 c0 -5 -7 -10 -15 -10 -8 0 -15 -5 -15 -11 0 -6 7 -8 16
-5 9 3 19 6 23 6 4 0 8 7 8 15 0 8 -4 15 -9 15 -4 0 -8 -4 -8 -10z"/>
<path d="M5905 3960 c-19 -7 -19 -7 1 -12 10 -3 28 -2 39 2 19 7 19 7 -1 12
-10 3 -28 2 -39 -2z"/>
<path d="M5528 3908 c-47 -10 -68 -37 -30 -39 61 -3 139 4 147 13 7 7 3 9 -12
5 -13 -3 -23 -1 -23 3 0 4 -9 6 -20 3 -16 -4 -19 -2 -14 11 3 9 5 15 3 15 -2
-1 -25 -6 -51 -11z"/>
<path d="M5306 3901 c-4 -5 -21 -13 -39 -16 -37 -8 -142 -40 -204 -63 -24 -8
-43 -20 -43 -27 0 -14 -42 -35 -70 -35 -22 0 -27 16 -7 23 6 3 -1 6 -16 6 -23
1 -27 5 -23 19 5 15 1 18 -16 17 -12 -1 -24 -7 -26 -13 -2 -7 -14 -12 -26 -12
-13 0 -34 -8 -47 -19 -13 -10 -46 -30 -74 -45 -27 -14 -69 -44 -92 -67 -39
-37 -41 -44 -38 -85 5 -67 107 -198 212 -272 34 -24 48 -28 37 -10 -5 7 -2 9
8 5 14 -5 15 -3 2 21 -18 36 -4 50 37 35 25 -10 30 -9 25 2 -2 7 -8 30 -12 49
-5 28 -3 37 10 42 9 3 23 1 31 -6 24 -20 27 -7 14 60 -9 46 -9 64 0 73 14 14
15 30 1 22 -5 -3 -10 -2 -10 4 0 18 18 21 24 4 5 -12 9 -14 18 -5 17 17 28 15
28 -4 0 -8 4 -12 10 -9 5 3 7 19 3 35 -3 19 -1 30 6 30 6 0 11 6 11 14 0 9 26
23 65 36 36 12 78 32 93 45 36 30 74 40 182 49 19 2 55 9 79 15 42 12 43 13
22 27 -11 8 -21 24 -21 35 0 19 -6 20 -63 18 -35 -1 -69 1 -75 5 -6 3 -13 2
-16 -3z"/>
<path d="M5960 3699 c6 -18 10 -35 10 -37 0 -2 5 0 11 3 6 4 8 14 5 22 -3 8
-2 11 3 8 5 -3 12 -1 16 5 3 5 -2 10 -12 10 -11 0 -24 5 -31 12 -9 9 -9 4 -2
-23z"/>
<path d="M4880 3286 c0 -9 5 -16 10 -16 6 0 10 4 10 9 0 6 -4 13 -10 16 -5 3
-10 -1 -10 -9z"/>
<path d="M4968 3248 c5 -5 16 -8 23 -6 8 3 3 7 -10 11 -17 4 -21 3 -13 -5z"/>
<path d="M6300 3181 c0 -5 9 -7 20 -4 11 3 20 7 20 9 0 2 -9 4 -20 4 -11 0
-20 -4 -20 -9z"/>
<path d="M6986 2790 c3 -23 0 -30 -14 -31 -14 0 -14 -2 3 -9 11 -5 14 -9 7 -9
-7 -1 -11 -12 -10 -30 1 -16 -3 -35 -10 -43 -6 -8 -14 -33 -18 -57 -4 -23 -13
-45 -21 -48 -14 -6 -38 -50 -35 -65 1 -4 -5 -5 -13 -2 -10 4 -15 0 -15 -11 0
-16 -49 -71 -60 -68 -3 1 -6 -21 -7 -48 -1 -42 2 -49 18 -49 13 0 19 -7 19
-23 0 -12 9 -30 21 -40 19 -17 20 -17 17 0 -2 15 5 19 45 21 43 3 47 5 47 30
0 20 3 23 12 14 7 -7 16 -12 20 -12 4 0 8 115 8 255 0 140 -4 255 -9 255 -4 0
-7 -13 -5 -30z"/>
<path d="M6813 2246 c8 -21 -11 -83 -28 -90 -8 -3 -15 -17 -15 -31 0 -14 -2
-25 -4 -25 -2 0 -11 -3 -20 -6 -11 -4 -16 -1 -16 10 0 9 -5 16 -11 16 -6 0 -8
-9 -4 -20 4 -11 2 -20 -4 -20 -6 0 -11 4 -11 9 0 5 -14 3 -30 -6 -17 -8 -27
-19 -24 -25 3 -5 -3 -4 -14 3 -18 11 -24 10 -40 -4 -11 -10 -23 -17 -28 -16
-5 2 -22 -3 -39 -10 -16 -7 -46 -20 -65 -28 -36 -16 -120 -43 -132 -43 -4 0
12 18 36 40 24 22 48 40 55 40 6 0 11 6 11 14 0 7 7 19 15 26 8 7 13 15 10 19
-2 4 5 15 16 24 19 16 20 16 28 -5 l9 -23 5 25 c3 14 8 37 12 53 3 15 12 27
19 27 8 0 17 7 20 16 5 12 2 15 -11 9 -33 -14 -78 -21 -120 -20 -23 1 -40 -2
-37 -7 3 -4 -11 -8 -30 -8 -20 0 -35 -3 -35 -7 3 -20 -2 -24 -15 -14 -11 10
-21 9 -43 -3 -38 -19 -266 -96 -285 -96 -9 0 -21 -7 -28 -16 -12 -13 -39 -14
-205 -10 -106 3 -195 3 -198 -1 -4 -3 -39 -5 -79 -4 -69 2 -165 -22 -190 -47
-4 -4 19 -21 52 -37 33 -16 60 -32 60 -36 0 -10 -40 -19 -91 -19 -25 0 -48 -3
-52 -6 -10 -10 4 -34 20 -34 8 0 11 -5 8 -10 -3 -6 0 -17 8 -25 8 -8 15 -32
15 -55 1 -28 8 -50 26 -71 14 -17 26 -41 26 -55 0 -18 5 -24 21 -24 17 0 19
-3 10 -14 -10 -11 -7 -17 10 -30 l23 -15 -34 -14 -33 -14 43 -15 c49 -16 61
-33 31 -43 -12 -3 -26 -15 -31 -26 -6 -10 -17 -19 -25 -19 -8 0 -15 -7 -15
-15 0 -8 7 -15 16 -15 12 0 14 -5 8 -17 -4 -10 -8 -37 -8 -59 -1 -27 -8 -50
-21 -64 -14 -16 -16 -24 -7 -27 16 -6 16 -38 0 -63 -10 -16 -10 -24 -1 -40 7
-10 10 -26 7 -34 -3 -8 4 -23 15 -33 25 -21 27 -41 5 -50 -15 -6 -15 -8 2 -20
10 -7 14 -13 10 -13 -5 0 -1 -11 8 -25 9 -13 16 -32 16 -42 0 -10 7 -27 15
-37 8 -11 15 -27 15 -35 0 -9 7 -29 15 -45 14 -26 14 -30 -2 -42 -16 -12 -16
-13 -2 -14 9 0 29 -6 44 -14 25 -13 25 -15 8 -25 -17 -10 -17 -12 -2 -24 15
-11 15 -15 3 -32 -8 -11 -12 -30 -9 -42 4 -18 1 -23 -14 -23 -23 0 -31 -27
-17 -53 8 -13 8 -20 -2 -26 -11 -7 -11 -9 2 -14 20 -8 21 -27 1 -27 -8 0 -19
-9 -25 -20 -9 -16 -8 -19 7 -14 10 2 8 -1 -4 -7 -33 -17 -28 -29 9 -24 37 5
63 -11 49 -29 -6 -7 -9 -27 -8 -46 1 -46 -5 -64 -25 -72 -12 -5 -16 -17 -14
-42 3 -31 -1 -37 -30 -51 -41 -19 -44 -46 -8 -74 20 -16 22 -21 10 -21 -13 0
-36 -35 -36 -56 0 -2 362 -4 805 -4 l805 0 0 860 c0 755 -2 860 -15 860 -17 0
-43 -20 -92 -67 -18 -18 -39 -33 -48 -33 -8 0 -15 -6 -15 -14 0 -8 -14 -23
-30 -33 -17 -9 -33 -26 -36 -38 -11 -35 -44 -75 -62 -73 -45 3 -62 -3 -62 -22
0 -20 -11 -26 -23 -13 -4 3 -2 12 4 19 8 10 4 20 -15 39 -31 31 -34 55 -5 55
18 0 20 5 18 46 -2 26 2 48 8 52 6 4 15 20 19 36 4 19 3 27 -3 23 -6 -4 -8 3
-6 17 3 13 14 26 24 29 12 3 19 14 19 29 0 28 28 71 41 63 8 -6 13 8 10 28 -2
9 38 69 52 78 5 4 10 28 11 55 2 26 8 50 14 52 15 5 16 32 2 32 -5 0 -10 -8
-10 -17 0 -13 -3 -14 -12 -5 -10 10 -10 17 0 32 6 11 12 28 12 39 0 10 7 24
15 31 18 15 21 100 4 100 -6 0 -9 -6 -6 -14z m-1313 -2025 c0 -12 -20 -25 -27
-18 -7 7 6 27 18 27 5 0 9 -4 9 -9z"/>
</g>
</svg>
